<svg width="43" height="32" viewBox="0 0 43 32" fill="none" xmlns="http://www.w3.org/2000/svg">
<g clip-path="url(#clip0_9_54)">
<path d="M43 30.2222C43 31.2041 42.0989 32 40.9874 32L2.34591 32C1.23439 32 0.333332 31.2041 0.333332 30.2222C0.333332 29.2404 1.2344 28.4444 2.34591 28.4444L40.9874 28.4444C42.0989 28.4444 43 29.2404 43 30.2222Z" fill="white"/>
<path d="M43 16C43 16.9818 42.0904 17.7778 40.9683 17.7778L16.5873 17.7778C15.4652 17.7778 14.5556 16.9818 14.5556 16C14.5556 15.0182 15.4652 14.2222 16.5873 14.2222L40.9683 14.2222C42.0904 14.2222 43 15.0182 43 16Z" fill="white"/>
<path d="M43 1.77776C43 2.7596 42.099 3.55554 40.9875 3.55554L2.34594 3.55554C1.23443 3.55554 0.333362 2.7596 0.333362 1.77776C0.333362 0.795921 1.23443 -1.75988e-05 2.34594 -1.75016e-05L40.9875 -1.41234e-05C42.099 -1.40263e-05 43 0.795924 43 1.77776Z" fill="white"/>
</g>
<defs>
<clipPath id="clip0_9_54">
<rect width="42.6667" height="32" fill="white" transform="translate(43 32) rotate(-180)"/>
</clipPath>
</defs>
</svg>
