<svg width="34" height="110" viewBox="0 0 34 110" fill="none" xmlns="http://www.w3.org/2000/svg">
<path d="M27.9874 1.87863C28.3216 2.0476 31.0952 2.0138 31.0952 2.0138L32.4987 2.0476L32.4653 3.43312L29.7585 4.71727L27.8203 6.00141C27.8203 6.00141 27.7107 11.0699 27.7535 13.2332C27.8203 16.6125 29.6583 18.5387 29.6583 18.5387L30.9281 18.6401L30.995 29.6567C30.995 29.6567 31.4628 29.5891 31.5296 29.8595C31.5965 30.1298 31.5631 43.2416 31.5631 43.2416L31.9975 43.4444C31.9975 43.4444 31.9975 45.6409 31.9641 46.1816C31.9306 46.7223 31.2289 47.3644 31.162 47.8037C31.0952 48.243 31.1286 49.3244 31.1286 49.3244L32.9666 49.3582L33 51.0141C33 51.0141 32.3317 51.0817 31.4628 51.0141C31.4628 53.9203 31.42 75.3463 31.3625 76.3928C31.3291 77.0011 30.9669 77.6343 30.6691 77.9206C30.3381 78.239 29.8058 78.4361 29.5246 78.4542C29.4578 79.3666 29.2907 79.5694 28.7894 80.0763C28.2881 80.5832 27.1185 80.4818 27.1185 80.4818C27.1185 80.4818 26.0738 88.2513 26.0492 88.9301C25.9692 91.1581 26.9849 90.4508 26.7175 93.0191C26.575 94.3898 25.0467 107.753 25.0467 108.091C25.0467 108.429 24.8953 109.232 24.0441 108.936C20.6152 107.745 16.1707 107.438 14.8209 107.55C13.076 107.696 15.6229 102.11 17.6948 95.0805C19.7667 88.0515 22.6406 80.2791 22.6406 80.2791C22.6406 80.2791 22.2067 79.4918 21.2705 79.0963C20.3139 78.6924 19.1652 78.7922 19.1652 78.7922C19.1652 78.7922 13.2169 81.3604 12.2144 82.0363C11.2118 82.7122 11.145 81.6308 11.145 81.6308L9.90856 77.0349C9.79681 76.5618 9.94197 76.2804 10.4208 76.1452C11.1544 75.9381 14.0523 75.8294 14.8543 75.2887C15.6564 74.748 18.43 72.3487 18.43 72.3487L18.43 62.0983L22.5962 62.1094C22.5962 62.1094 22.4401 62.0756 22.5294 61.4451C11.7962 61.4451 2.65377 52.2771 1.15319 49.3469C0.753785 48.5672 1.22003 48.3331 1.58762 48.1303C1.95521 47.9275 5.68647 45.5847 6.39973 45.2241C7.11245 44.8637 7.37979 44.5033 8.09252 45.5847C13.5636 53.883 22.8411 53.65 22.8411 53.65C22.8411 53.65 22.9079 49.7975 22.8745 49.3582C22.8411 48.9189 21.5734 47.4682 21.5712 46.6885C21.5613 43.5517 23.075 43.0051 23.1084 40.6395C23.1237 39.5573 23.1084 28.1022 23.1084 28.1022L25.0801 28.1022L25.0467 1.0338L27.6866 1.00001C27.6866 1.00001 27.6532 1.70966 27.9874 1.87863ZM19.1497 71.8489L22.5133 71.8307L22.4799 64.8355C22.3735 65.1137 19.205 64.5314 19.205 64.5314L19.1497 71.8489Z" fill="white" stroke="white"/>
</svg>
