<svg width="701" height="107" viewBox="0 0 701 107" fill="none" xmlns="http://www.w3.org/2000/svg">
<g clip-path="url(#clip0_9_63)">
<path d="M0 106.221V0.628634H21.1503V82.1638H34.1564V106.221H0ZM59.1896 60.057H63.6622L61.4814 24.1876L59.1896 60.057ZM35.369 106.221L44.9152 0.628634H78.0369L87.5828 106.221H65.676L64.4743 83.3558H58.4107L57.2092 106.221H35.369ZM165.063 63.1564V84.2446C165.063 92.3286 164.028 98.1371 161.948 101.67C159.878 105.203 156.441 106.98 151.668 106.98H129.56C125.11 106.98 121.85 105.138 119.781 101.475C117.723 97.812 116.688 92.0687 116.688 84.2446V25.2063C116.688 15.995 117.645 9.47123 119.569 5.6785C121.494 1.88562 124.832 5.83577e-06 129.56 5.83577e-06H151.668C156.708 5.83577e-06 160.201 1.86392 162.148 5.59171C164.095 9.31962 165.063 15.865 165.063 25.2063V39.1204H143.579V31.4482C143.579 28.6955 143.368 26.7232 142.945 25.5745C142.522 24.4042 141.821 23.8191 140.842 23.8191C139.908 23.8191 139.229 24.426 138.806 25.6181C138.383 26.8317 138.172 28.7607 138.172 31.4482V75.4018C138.172 78.0676 138.383 80.0182 138.806 81.2102C139.229 82.424 139.908 83.0309 140.842 83.0309C141.777 83.0309 142.467 82.424 142.912 81.1886C143.357 79.9533 143.579 78.046 143.579 75.4018V63.1564H165.063ZM191.031 60.057H195.504L193.323 24.1876L191.031 60.057ZM167.21 106.221L176.757 0.628634H209.878L219.424 106.221H197.517L196.316 83.3558H190.252L189.05 106.221H167.21ZM234.722 106.98C230.394 106.98 227.101 105.29 224.854 101.93C222.606 98.5706 221.482 93.6292 221.482 87.1054V68.0111H243.133V75.4451C243.133 78.0676 243.333 79.9533 243.745 81.1453C244.157 82.3373 244.825 82.9224 245.737 82.9224C246.671 82.9224 247.35 82.294 247.773 81.0151C248.196 79.7581 248.407 77.6558 248.407 74.7299C248.407 71.4356 248.207 69.1382 247.806 67.8162C247.406 66.5156 246.393 65.2153 244.791 63.9583L230.127 52.3846C226.756 49.7188 224.475 46.8579 223.274 43.7586C222.083 40.6809 221.482 36.4329 221.482 31.0581V19.7446C221.482 13.2858 222.606 8.36586 224.854 5.02823C227.101 1.66877 230.394 5.83577e-06 234.722 5.83577e-06H256.551C260.879 5.83577e-06 264.161 1.66877 266.398 5.02823C268.634 8.36586 269.758 13.2858 269.758 19.7446V32.2717H248.273V30.9279C248.273 28.6089 248.04 26.8317 247.573 25.6397C247.105 24.426 246.427 23.8191 245.536 23.8191C244.78 23.8191 244.168 24.2742 243.701 25.2063C243.233 26.1381 243 27.3952 243 28.9556C243 30.4945 243.211 31.7298 243.634 32.6835C244.057 33.6371 245.114 34.7858 246.816 36.1513L263.894 50.1739C266.064 51.9945 267.588 54.552 268.456 57.8246C269.324 61.0972 269.758 66.0605 269.758 72.7143V84.3746C269.758 92.1337 268.689 97.8339 266.542 101.497C264.406 105.159 261.079 106.98 256.551 106.98H234.722ZM295.658 60.057H300.131L297.95 24.1876L295.658 60.057ZM271.838 106.221L281.384 0.628634H314.506L324.052 106.221H302.145L300.943 83.3558H294.88L293.678 106.221H271.838Z" fill="white"/>
<path d="M491.406 25.0279H488.47V54.6553H491.337C492.407 54.6553 493.169 54.0919 493.636 52.9432C494.102 51.7945 494.342 49.8439 494.342 47.113V32.7002C494.342 29.9477 494.114 27.9971 493.659 26.8051C493.203 25.613 492.453 25.0279 491.406 25.0279ZM466.839 106.802V1.20891H502.272C507.165 1.20891 510.67 2.98597 512.786 6.54043C514.914 10.0948 515.972 15.9033 515.972 23.9443V53.0732C515.972 62.5229 514.971 69.1333 512.957 72.9261C510.943 76.719 507.381 78.6046 502.272 78.6046H488.47V106.802H466.839ZM540.698 60.6373H545.272L543.042 24.7678L540.698 60.6373ZM516.336 106.802L526.099 1.20891H559.973L569.736 106.802H547.332L546.103 83.9361H539.902L538.673 106.802H516.336ZM596.84 25.0279H593.904V54.6553H596.772C597.841 54.6553 598.604 54.0919 599.07 52.9432C599.537 51.7945 599.776 49.8439 599.776 47.113V32.7002C599.776 29.9477 599.548 27.9971 599.093 26.8051C598.638 25.613 597.887 25.0279 596.84 25.0279ZM572.273 106.802V1.20891H607.707C612.599 1.20891 616.104 2.98597 618.22 6.54043C620.348 10.0948 621.406 15.9033 621.406 23.9443V53.0732C621.406 62.5229 620.405 69.1333 618.391 72.9261C616.377 76.719 612.816 78.6046 607.707 78.6046H593.904V106.802H572.273ZM626.14 106.802V1.20891H661.072V25.2663H647.771V36.8399H661.072V60.8973H647.771V82.7441H661.072V106.802H626.14ZM666.068 106.802V1.20891H687.698V82.7441H701V106.802H666.068Z" fill="white"/>
<path d="M340.352 0.669469H447.853V105.348H340.352V0.669469Z" fill="#BD302D"/>
<path d="M379.788 72.8156H381.386C382.166 72.8156 382.712 72.4406 383.015 71.6903C383.318 70.94 383.47 69.5745 383.47 67.5786V38.348C383.47 36.3823 383.318 35.0168 383.007 34.2514C382.697 33.4862 382.151 33.111 381.386 33.111H379.788V72.8156ZM365.385 89.5618V16.4549H388.977C392.228 16.4549 394.569 17.6853 395.978 20.1463C397.395 22.6071 398.099 26.6287 398.099 32.1807V71.9303C398.099 78.4727 397.433 83.0495 396.099 85.6453C394.766 88.2563 392.394 89.5618 388.977 89.5618H365.385ZM401.251 89.5618V16.4549H424.51V33.111H415.653V41.1239H424.51V57.7802H415.653V72.9057H424.51V89.5618H401.251Z" fill="white"/>
</g>
<defs>
<clipPath id="clip0_9_63">
<rect width="701" height="106.98" fill="white"/>
</clipPath>
</defs>
</svg>
