<svg width="349" height="36" viewBox="0 0 349 36" fill="none" xmlns="http://www.w3.org/2000/svg">
<path d="M192.977 27V0.935619H198.299V22.3301H203.077V27H192.977ZM210.439 22.1491V0.971819H215.543V21.7147C215.543 23.4523 214.892 24.9366 213.733 26.095C212.611 27.181 211.091 27.5068 209.498 27.5068C207.905 27.5068 206.348 27.181 205.262 26.095C204.104 24.9366 203.452 23.4523 203.452 21.7147V0.971819H208.557V22.1491C208.557 22.8731 209.244 22.9455 209.498 22.9455C209.751 22.9455 210.439 22.8731 210.439 22.1491ZM223.15 22.1129V16.719H228.29V21.8233C228.29 23.5972 227.639 24.9004 226.444 26.095C225.358 27.181 223.838 27.5068 222.245 27.5068C220.652 27.5068 219.131 27.181 218.045 26.095C216.851 24.9004 216.199 23.5972 216.199 21.8233V6.2933C216.199 4.51947 216.851 3.18005 218.045 2.02163C219.131 0.935619 220.652 0.609815 222.245 0.609815C223.838 0.609815 225.358 0.935619 226.444 2.02163C227.639 3.18005 228.29 4.51947 228.29 6.2933V11.5786H223.15V6.00369C223.15 5.24348 222.498 5.17108 222.245 5.17108C221.991 5.17108 221.34 5.24348 221.34 6.00369V22.1129C221.34 22.8731 221.991 22.9455 222.245 22.9455C222.498 22.9455 223.15 22.8731 223.15 22.1129ZM236.597 27H236.669L236.271 23.0903H233.737L233.339 27H228.018L232.362 0.935619H237.647L241.991 27H236.597ZM234.099 19.2169H235.909L235.004 8.79113L234.099 19.2169ZM253.776 18.7825V21.8233C253.776 23.4885 253.197 24.828 251.93 26.0588C250.953 27.0362 249.613 27.5068 247.695 27.5068C245.848 27.5068 244.654 27.0724 243.64 26.0588C242.373 24.828 241.794 23.4885 241.794 21.8233V17.6603H246.789V22.0767C246.789 22.8007 247.477 22.8731 247.695 22.8731C247.876 22.8731 248.563 22.8007 248.563 22.0767V18.8911C248.563 17.7689 248.238 17.6603 247.007 16.4656L243.242 13.0628C242.264 12.0854 241.794 11.1442 241.794 9.55135C241.794 9.47894 241.794 6.2933 241.794 6.2933C241.794 4.62807 242.373 3.25245 243.64 2.02163C244.654 1.04422 245.848 0.609815 247.731 0.609815C249.577 0.609815 250.772 1.04422 251.785 2.02163C253.052 3.25245 253.631 4.62807 253.631 6.2933V10.0582H248.563V6.03989C248.563 5.35208 248.057 5.20728 247.803 5.20728C247.477 5.20728 247.007 5.35208 247.007 6.00369V9.04454C247.007 10.2754 247.695 10.4926 248.563 11.3614L252.401 14.6556C253.559 15.814 253.776 16.7915 253.776 18.7825Z" fill="white"/>
<path d="M305.634 18.7825V21.8233C305.634 23.4885 305.055 24.828 303.788 26.0588C302.81 27.0362 301.471 27.5068 299.552 27.5068C297.706 27.5068 296.511 27.0724 295.498 26.0588C294.231 24.828 293.652 23.4885 293.652 21.8233V17.6603H298.647V22.0767C298.647 22.8007 299.335 22.8731 299.552 22.8731C299.733 22.8731 300.421 22.8007 300.421 22.0767V18.8911C300.421 17.7689 300.095 17.6603 298.864 16.4656L295.1 13.0628C294.122 12.0854 293.652 11.1442 293.652 9.55135C293.652 9.47894 293.652 6.2933 293.652 6.2933C293.652 4.62807 294.231 3.25245 295.498 2.02163C296.511 1.04422 297.706 0.609815 299.588 0.609815C301.435 0.609815 302.629 1.04422 303.643 2.02163C304.91 3.25245 305.489 4.62807 305.489 6.2933V10.0582H300.421V6.03989C300.421 5.35208 299.914 5.20728 299.661 5.20728C299.335 5.20728 298.864 5.35208 298.864 6.00369V9.04454C298.864 10.2754 299.552 10.4926 300.421 11.3614L304.258 14.6556C305.417 15.814 305.634 16.7915 305.634 18.7825ZM306.835 27V0.935619H311.976V27H306.835ZM313.493 27V0.935619H318.815V22.3301H323.593V27H313.493ZM326.113 27L321.841 0.935619H327.163L328.828 18.1671L330.529 0.935619H335.851L331.579 27H326.113ZM342.317 27H342.39L341.991 23.0903H339.457L339.059 27H333.738L338.082 0.935619H343.367L347.711 27H342.317ZM339.819 19.2169H341.629L340.724 8.79113L339.819 19.2169Z" fill="white"/>
<rect x="259.914" width="28.1714" height="28.1714" fill="#BD302D"/>
<path d="M272.78 7.29943C273.55 8.06929 273.97 9.09578 273.97 10.2389V18.964C273.97 20.1072 273.55 21.1337 272.78 21.9035C272.057 22.6034 271.1 23 270.05 23H266.154V6.20295H270.05C271.1 6.20295 272.057 6.59955 272.78 7.29943ZM270.634 19.5239V9.67901C270.634 9.1891 270.4 8.9558 270.05 8.9558H269.49V20.2472H270.05C270.447 20.2472 270.634 20.0139 270.634 19.5239ZM279.205 23H279.251L278.995 20.4804H277.362L277.105 23H273.676L276.475 6.20295H279.881L282.681 23H279.205ZM277.595 17.9842H278.761L278.178 11.2654L277.595 17.9842Z" fill="white"/>
<path d="M3.83726 27V5.27968H0.398206V0.935619H12.4892V5.27968H9.05013V27H3.83726ZM13.1569 27V0.935619H18.4784V12.3026H20.3608V0.935619H25.6823V27H20.3608V16.0674H18.4784V27H13.1569ZM36.9548 2.02163C38.1494 3.18005 38.801 4.51947 38.801 6.2571V21.8595C38.801 23.6334 38.1494 24.9366 36.9548 26.095C35.8326 27.2172 34.276 27.5068 32.6831 27.5068C31.0903 27.5068 29.5337 27.2172 28.4115 26.095C27.2531 24.9366 26.6014 23.6334 26.6014 21.8595V6.2571C26.6014 4.51947 27.2531 3.18005 28.4115 2.02163C29.5337 0.935619 31.0903 0.609815 32.6831 0.609815C34.276 0.609815 35.8326 0.935619 36.9548 2.02163ZM33.6606 22.1491V5.96749C33.6606 5.24348 32.9727 5.17108 32.6831 5.17108C32.4297 5.17108 31.7419 5.24348 31.7419 5.96749V22.1491C31.7419 22.8731 32.4297 22.9817 32.6831 22.9817C32.9727 22.9817 33.6606 22.8731 33.6606 22.1491ZM49.4819 0.971819H56.0704V27H51.6177V12.1578L49.8439 27H45.9704L44.1966 12.1216V27H39.7077V0.971819H46.3324L47.8891 20.6287L49.4819 0.971819ZM65.2964 27H65.3688L64.9706 23.0903H62.4366L62.0384 27H56.7169L61.061 0.935619H66.3462L70.6903 27H65.2964ZM62.7986 19.2169H64.6086L63.7036 8.79113L62.7986 19.2169ZM82.4755 18.7825V21.8233C82.4755 23.4885 81.8963 24.828 80.6293 26.0588C79.6519 27.0362 78.3125 27.5068 76.3939 27.5068C74.5476 27.5068 73.353 27.0724 72.3394 26.0588C71.0724 24.828 70.4932 23.4885 70.4932 21.8233V17.6603H75.4888V22.0767C75.4888 22.8007 76.1767 22.8731 76.3939 22.8731C76.5749 22.8731 77.2627 22.8007 77.2627 22.0767V18.8911C77.2627 17.7689 76.9369 17.6603 75.706 16.4656L71.9412 13.0628C70.9638 12.0854 70.4932 11.1442 70.4932 9.55135C70.4932 9.47894 70.4932 6.2933 70.4932 6.2933C70.4932 4.62807 71.0724 3.25245 72.3394 2.02163C73.353 1.04422 74.5476 0.609815 76.4301 0.609815C78.2763 0.609815 79.4709 1.04422 80.4845 2.02163C81.7515 3.25245 82.3307 4.62807 82.3307 6.2933V10.0582H77.2627V6.03989C77.2627 5.35208 76.7559 5.20728 76.5025 5.20728C76.1767 5.20728 75.706 5.35208 75.706 6.00369V9.04454C75.706 10.2754 76.3939 10.4926 77.2627 11.3614L81.0999 14.6556C82.2583 15.814 82.4755 16.7915 82.4755 18.7825Z" fill="white"/>
<path d="M132.752 0.971819H139.34V27H134.887V12.1578L133.114 27H129.24L127.466 12.1216V27H122.977V0.971819H129.602L131.159 20.6287L132.752 0.971819ZM140.566 27V0.935619H150.666V5.27968H145.887V12.3026H149.435V16.0674H145.887V22.4749H150.666V27H140.566ZM163.781 26.7828L163.817 26.8552C163.817 26.9276 163.781 26.9638 163.708 27H162.948H158.858C158.604 27 158.423 26.4208 158.423 25.6968V17.8413C158.423 17.1173 158.17 16.7553 157.518 16.7553H156.613V27H151.473V17.9137V0.935619H157.518C159.111 0.935619 160.631 1.55103 161.754 2.67324C162.912 3.83166 163.564 5.42449 163.564 7.19831V10.5288C163.564 12.1216 162.731 13.642 161.754 14.7642C163.093 15.814 163.564 17.4069 163.564 18.9997V25.6244V25.7692C163.564 26.1312 163.672 26.5294 163.781 26.7828ZM158.423 11.3976V6.3295C158.423 5.60549 158.206 5.20728 157.518 5.20728H156.613V12.4836H157.518C158.206 12.4836 158.423 12.1216 158.423 11.3976Z" fill="white"/>
<rect x="89" width="28.1714" height="28.1714" fill="#BD302D"/>
<path d="M98.9152 7.29943C99.6851 8.06929 100.105 9.09578 100.105 10.2389V18.964C100.105 20.1072 99.6851 21.1337 98.9152 21.9035C98.192 22.6034 97.2355 23 96.1857 23H92.2897V6.20295H96.1857C97.2355 6.20295 98.192 6.59955 98.9152 7.29943ZM96.7689 19.5239V9.67901C96.7689 9.1891 96.5356 8.9558 96.1857 8.9558H95.6258V20.2472H96.1857C96.5823 20.2472 96.7689 20.0139 96.7689 19.5239ZM100.686 23V6.20295H107.194V9.00246H104.115V13.5283H106.401V15.9546H104.115V20.0838H107.194V23H100.686ZM107.714 23V6.20295H111.144V19.9905H114.223V23H107.714Z" fill="white"/>
<path d="M175.207 8.12805L178.398 13.9684L181.581 8.12805H182.876L179.056 14.9592L182.981 22H181.695L178.398 15.9691L175.092 22H173.797L177.741 14.9592L173.921 8.12805H175.207Z" fill="white"/>
</svg>
